<svg width="28" height="10" viewBox="0 0 28 10" fill="none" xmlns="http://www.w3.org/2000/svg">
<path d="M4.93555 1.74902L2.22852 10H0.0478516L3.74609 0.046875H5.13379L4.93555 1.74902ZM7.18457 10L4.4707 1.74902L4.25195 0.046875H5.65332L9.37207 10H7.18457ZM7.06152 6.29492V7.90137H1.80469V6.29492H7.06152ZM13.3506 10H11.1836L11.1973 8.40039H13.3506C13.8883 8.40039 14.3418 8.27962 14.7109 8.03809C15.0801 7.79199 15.3581 7.43424 15.5449 6.96484C15.7363 6.49544 15.832 5.92806 15.832 5.2627V4.77734C15.832 4.26693 15.7773 3.81803 15.668 3.43066C15.5632 3.04329 15.4059 2.71745 15.1963 2.45312C14.9867 2.1888 14.7292 1.99056 14.4238 1.8584C14.1185 1.72168 13.7676 1.65332 13.3711 1.65332H11.1426V0.046875H13.3711C14.0365 0.046875 14.6449 0.160807 15.1963 0.388672C15.7523 0.611979 16.2331 0.933268 16.6387 1.35254C17.0443 1.77181 17.3564 2.27311 17.5752 2.85645C17.7985 3.43522 17.9102 4.08008 17.9102 4.79102V5.2627C17.9102 5.96908 17.7985 6.61393 17.5752 7.19727C17.3564 7.7806 17.0443 8.2819 16.6387 8.70117C16.2376 9.11589 15.7568 9.43717 15.1963 9.66504C14.6403 9.88835 14.0251 10 13.3506 10ZM12.3457 0.046875V10H10.2949V0.046875H12.3457ZM22.4561 10H20.2891L20.3027 8.40039H22.4561C22.9938 8.40039 23.4473 8.27962 23.8164 8.03809C24.1855 7.79199 24.4635 7.43424 24.6504 6.96484C24.8418 6.49544 24.9375 5.92806 24.9375 5.2627V4.77734C24.9375 4.26693 24.8828 3.81803 24.7734 3.43066C24.6686 3.04329 24.5114 2.71745 24.3018 2.45312C24.0921 2.1888 23.8346 1.99056 23.5293 1.8584C23.224 1.72168 22.873 1.65332 22.4766 1.65332H20.248V0.046875H22.4766C23.1419 0.046875 23.7503 0.160807 24.3018 0.388672C24.8577 0.611979 25.3385 0.933268 25.7441 1.35254C26.1497 1.77181 26.4619 2.27311 26.6807 2.85645C26.904 3.43522 27.0156 4.08008 27.0156 4.79102V5.2627C27.0156 5.96908 26.904 6.61393 26.6807 7.19727C26.4619 7.7806 26.1497 8.2819 25.7441 8.70117C25.3431 9.11589 24.8623 9.43717 24.3018 9.66504C23.7458 9.88835 23.1305 10 22.4561 10ZM21.4512 0.046875V10H19.4004V0.046875H21.4512Z" fill="white"/>
</svg>
