<svg width="18" height="21" viewBox="0 0 18 21" fill="none" xmlns="http://www.w3.org/2000/svg">
<path fill-rule="evenodd" clip-rule="evenodd" d="M8.85955 1.80717C7.23948 1.80717 5.68576 2.4269 4.54019 3.53004C3.39463 4.63317 2.75106 6.12935 2.75106 7.68942H1.39362C1.39362 5.78267 2.1802 3.95401 3.58034 2.60573C4.98047 1.25746 6.87946 0.5 8.85955 0.5C10.8396 0.5 12.7386 1.25746 14.1388 2.60573C15.5389 3.95401 16.3255 5.78267 16.3255 7.68942H14.968C14.968 6.12935 14.3245 4.63317 13.1789 3.53004C12.0333 2.4269 10.4796 1.80717 8.85955 1.80717Z" fill="#323334" fill-opacity="0.5"/>
<path fill-rule="evenodd" clip-rule="evenodd" d="M0.18546 8.01348C0.249072 7.93717 0.329666 7.8756 0.421294 7.83329C0.512922 7.79098 0.613246 7.76903 0.714863 7.76904H17.0042C17.1057 7.76908 17.206 7.79107 17.2975 7.83338C17.3891 7.87569 17.4696 7.93725 17.5332 8.01352C17.5968 8.08979 17.6418 8.17882 17.6649 8.27406C17.6879 8.3693 17.6885 8.46831 17.6666 8.5638L15.1879 19.3048C15.0875 19.7403 14.8359 20.1299 14.4746 20.4091C14.1133 20.6884 13.6639 20.8406 13.2006 20.8407H4.51842C4.05513 20.8406 3.60573 20.6884 3.24442 20.4091C2.88312 20.1299 2.6315 19.7403 2.53112 19.3048L0.052431 8.5638C0.0306518 8.46853 0.0312954 8.36977 0.0543146 8.27477C0.0773338 8.17977 0.122145 8.09094 0.18546 8.01479V8.01348ZM1.56055 9.07621L3.85598 19.0211C3.88936 19.1664 3.97319 19.2963 4.09363 19.3895C4.21408 19.4827 4.36393 19.5335 4.51842 19.5335H13.2006C13.3551 19.5335 13.505 19.4827 13.6254 19.3895C13.7458 19.2963 13.8297 19.1664 13.863 19.0211L16.1571 9.07621H1.56191H1.56055Z" fill="#323334" fill-opacity="0.5"/>
</svg>
