<svg width="20" height="20" viewBox="0 0 20 20" fill="none" xmlns="http://www.w3.org/2000/svg">
<g opacity="0.5">
<path fill-rule="evenodd" clip-rule="evenodd" d="M10.0305 4.039L9.13694 3.12052C7.03951 0.964513 3.1936 1.70852 1.80528 4.4191C1.15349 5.69401 1.00644 7.53472 2.1966 9.88389C3.34315 12.1458 5.72846 14.8552 10.0305 17.8063C14.3325 14.8552 16.7166 12.1458 17.8644 9.88389C19.0546 7.53347 18.9088 5.69401 18.2557 4.4191C16.8674 1.70852 13.0215 0.963267 10.9241 3.11927L10.0305 4.039ZM10.0305 19.308C-9.07818 6.68104 4.14698 -3.17427 9.81116 2.03878C9.88593 2.10732 9.95946 2.17836 10.0305 2.25188C10.1008 2.17842 10.174 2.10775 10.2498 2.04002C15.9128 -3.17676 29.1392 6.67979 10.0305 19.308Z" fill="#323334"/>
</g>
</svg>
