<svg width="21" height="20" viewBox="0 0 21 20" fill="none" xmlns="http://www.w3.org/2000/svg">
<path d="M10.4474 7.34938C9.01891 7.34938 7.85319 8.51187 7.85319 9.93636C7.85319 11.3609 9.01891 12.5233 10.4474 12.5233C11.8758 12.5233 13.0415 11.3609 13.0415 9.93636C13.0415 8.51187 11.8758 7.34938 10.4474 7.34938ZM18.2279 9.93636C18.2279 8.86508 18.2377 7.80351 18.1773 6.73417C18.117 5.4921 17.8329 4.38977 16.9221 3.48151C16.0094 2.57131 14.9059 2.28991 13.6604 2.22975C12.5861 2.16958 11.5216 2.17929 10.4493 2.17929C9.37505 2.17929 8.31053 2.16958 7.23822 2.22975C5.9927 2.28991 4.88731 2.57326 3.97653 3.48151C3.0638 4.39171 2.78161 5.4921 2.72128 6.73417C2.66095 7.80545 2.67068 8.86702 2.67068 9.93636C2.67068 11.0057 2.66095 12.0692 2.72128 13.1386C2.78161 14.3806 3.06575 15.483 3.97653 16.3912C4.88926 17.3014 5.9927 17.5828 7.23822 17.643C8.31247 17.7031 9.377 17.6934 10.4493 17.6934C11.5236 17.6934 12.5881 17.7031 13.6604 17.643C14.9059 17.5828 16.0113 17.2995 16.9221 16.3912C17.8348 15.481 18.117 14.3806 18.1773 13.1386C18.2396 12.0692 18.2279 11.0076 18.2279 9.93636ZM10.4474 13.9168C8.23852 13.9168 6.45588 12.1391 6.45588 9.93636C6.45588 7.73364 8.23852 5.95594 10.4474 5.95594C12.6562 5.95594 14.4388 7.73364 14.4388 9.93636C14.4388 12.1391 12.6562 13.9168 10.4474 13.9168ZM14.6023 6.72252C14.0866 6.72252 13.6701 6.30721 13.6701 5.79292C13.6701 5.27862 14.0866 4.86331 14.6023 4.86331C15.118 4.86331 15.5345 5.27862 15.5345 5.79292C15.5347 5.91504 15.5107 6.03599 15.4639 6.14884C15.4171 6.2617 15.3484 6.36424 15.2618 6.45059C15.1752 6.53694 15.0724 6.60541 14.9592 6.65207C14.8461 6.69874 14.7248 6.72268 14.6023 6.72252Z" fill="white"/>
</svg>
