<svg width="21" height="20" viewBox="0 0 21 20" fill="none" xmlns="http://www.w3.org/2000/svg">
<path d="M18.2877 4.93536C17.6922 5.19154 17.0441 5.37591 16.3766 5.44771C17.0696 5.03713 17.5886 4.38847 17.8362 3.62343C17.1858 4.00923 16.4734 4.27975 15.7305 4.42301C15.42 4.09198 15.0444 3.82826 14.6272 3.64829C14.21 3.46832 13.7602 3.37596 13.3056 3.37696C11.4665 3.37696 9.98748 4.86356 9.98748 6.68784C9.98748 6.94401 10.0186 7.20019 10.0692 7.44666C7.31547 7.30305 4.85947 5.99112 3.22668 3.98247C2.92917 4.48922 2.77326 5.06622 2.77518 5.65343C2.77518 6.80234 3.36096 7.8154 4.25423 8.4112C3.72781 8.39053 3.21372 8.24624 2.75377 7.99006V8.03082C2.75377 9.63968 3.8942 10.973 5.41411 11.2796C5.12873 11.3535 4.83516 11.3913 4.54031 11.3922C4.32429 11.3922 4.11995 11.3708 3.91366 11.3417C4.33402 12.6536 5.55813 13.6065 7.01577 13.6376C5.87534 14.5284 4.44689 15.0524 2.89584 15.0524C2.61755 15.0524 2.36066 15.0427 2.09404 15.0116C3.5653 15.9529 5.31097 16.4963 7.19092 16.4963C13.2939 16.4963 16.6335 11.4543 16.6335 7.07792C16.6335 6.93431 16.6335 6.7907 16.6237 6.64708C17.2698 6.17549 17.8362 5.59133 18.2877 4.93536Z" fill="white"/>
</svg>
