<svg width="21" height="20" viewBox="0 0 21 20" fill="none" xmlns="http://www.w3.org/2000/svg">
<g clip-path="url(#clip0_2_339)">
<path d="M8.95921 0H7.83824L7.09094 2.85675L6.34363 0H5.09811C5.34722 0.745238 5.59632 1.36627 5.84542 2.11151C6.21908 3.10516 6.46818 3.9746 6.46818 4.47143V7.45238H7.58914V4.47143L8.95921 0ZM11.9484 5.58929V3.72619C11.9484 3.10516 11.8239 2.73254 11.5748 2.35992C11.3257 1.9873 10.952 1.8631 10.4538 1.8631C9.95562 1.8631 9.58196 2.11151 9.33286 2.48413C9.08376 2.73254 8.95921 3.10516 8.95921 3.72619V5.71349C8.95921 6.33452 9.08376 6.70714 9.33286 6.95556C9.58196 7.32818 9.95562 7.45238 10.4538 7.45238C10.952 7.45238 11.3257 7.20397 11.5748 6.83135C11.8239 6.70714 11.9484 6.21032 11.9484 5.58929ZM10.952 5.8377C10.952 6.33452 10.8275 6.58294 10.4538 6.58294C10.0802 6.58294 9.95562 6.33452 9.95562 5.8377V3.47778C9.95562 2.98095 10.0802 2.73254 10.4538 2.73254C10.8275 2.73254 10.952 2.98095 10.952 3.47778V5.8377ZM15.685 7.45238V1.8631H14.6886V6.08611C14.4395 6.45873 14.3149 6.58294 14.0658 6.58294C13.9413 6.58294 13.8167 6.45873 13.8167 6.33452V1.8631H12.8203V6.21032C12.8203 6.58294 12.8203 6.83135 12.9449 7.07976C12.9449 7.32818 13.194 7.45238 13.5676 7.45238C13.9413 7.45238 14.3149 7.20397 14.6886 6.83135V7.45238H15.685Z" fill="white"/>
<path d="M16.1828 13.0415C15.8094 13.0415 15.6849 13.2899 15.6849 13.7867V14.2836H16.6806V13.7867C16.6806 13.2899 16.5562 13.0415 16.1828 13.0415Z" fill="white"/>
<path d="M12.5709 13.0415C12.4465 13.0415 12.1976 13.1657 12.0731 13.2899V16.6435C12.1976 16.7677 12.4465 16.8919 12.5709 16.8919C12.8199 16.8919 12.9443 16.6435 12.9443 16.1467V13.7867C12.9443 13.2899 12.8199 13.0415 12.5709 13.0415Z" fill="white"/>
<path d="M18.6743 10.3089C18.4252 9.43945 17.6779 8.69421 16.9306 8.69421C14.9377 8.4458 12.8204 8.4458 10.703 8.4458C8.58562 8.4458 6.5928 8.4458 4.47543 8.69421C3.72812 8.69421 2.98081 9.43945 2.73171 10.3089C2.48261 11.551 2.4826 12.9172 2.4826 14.1593C2.4826 15.4014 2.48261 16.7676 2.73171 18.0097C2.98081 18.8791 3.60357 19.5002 4.47543 19.6244C6.5928 19.8728 8.58562 19.8728 10.703 19.8728C12.8204 19.8728 14.8132 19.8728 16.9306 19.6244C17.8024 19.5002 18.5497 18.8791 18.6743 18.0097C18.9234 16.7676 18.9234 15.4014 18.9234 14.1593C18.9234 12.9172 18.9234 11.551 18.6743 10.3089ZM7.21556 11.4268H5.97004V17.7613H4.84908V11.4268H3.72812V10.3089H7.21556V11.4268ZM10.2048 17.7613H9.20838V17.1402C8.83473 17.6371 8.46107 17.7613 8.08742 17.7613C7.71376 17.7613 7.58921 17.6371 7.46466 17.3887C7.46466 17.2645 7.34011 17.016 7.34011 16.5192V12.172H8.33652V16.5192C8.33652 16.6434 8.46107 16.7676 8.58562 16.7676C8.83473 16.7676 8.95928 16.6434 9.20838 16.2708V12.172H10.2048V17.7613ZM13.9413 16.0224C13.9413 16.5192 13.9413 16.8918 13.8168 17.1402C13.6922 17.5129 13.4431 17.7613 13.0695 17.7613C12.6958 17.7613 12.3222 17.5129 12.0731 17.1402V17.6371H11.0767V10.3089H12.0731V12.6688C12.4467 12.2962 12.6958 12.0478 13.0695 12.0478C13.4431 12.0478 13.6922 12.2962 13.8168 12.6688C13.9413 12.9172 13.9413 13.2898 13.9413 13.7867V16.0224ZM17.6779 15.1529H15.6851V16.1466C15.6851 16.6434 15.8096 16.8918 16.1833 16.8918C16.4324 16.8918 16.5569 16.7676 16.6815 16.5192V15.8982H17.6779V16.6434C17.6779 16.8918 17.5533 17.016 17.4288 17.2645C17.1797 17.6371 16.806 17.8855 16.1833 17.8855C15.6851 17.8855 15.3114 17.6371 14.9377 17.2645C14.6886 17.016 14.5641 16.5192 14.5641 16.0224V14.1593C14.5641 13.5383 14.6886 13.1656 14.8132 12.9172C15.0623 12.5446 15.436 12.2962 16.0587 12.2962C16.5569 12.2962 16.9306 12.5446 17.1797 12.9172C17.4288 13.1656 17.4288 13.6625 17.4288 14.1593V15.1529H17.6779Z" fill="white"/>
</g>
<defs>
<clipPath id="clip0_2_339">
<rect width="19.9282" height="19.873" fill="white" transform="translate(0.738831)"/>
</clipPath>
</defs>
</svg>
